<svg width="28" height="28" viewBox="0 0 28 28" fill="none" xmlns="http://www.w3.org/2000/svg">
<path d="M9.1875 26.25C9.53263 26.2514 9.87462 26.1845 10.1938 26.0531C10.5129 25.9217 10.8028 25.7284 11.0469 25.4844C11.2909 25.2403 11.4842 24.9504 11.6156 24.6313C11.747 24.3121 11.8139 23.9701 11.8125 23.625V18.375" stroke="white" stroke-width="2" stroke-linecap="round" stroke-linejoin="round"/>
<path d="M18.8125 26.25C18.4674 26.2514 18.1254 26.1845 17.8062 26.0531C17.4871 25.9217 17.1972 25.7284 16.9531 25.4844C16.7091 25.2403 16.5158 24.9504 16.3844 24.6313C16.253 24.3121 16.186 23.9701 16.1875 23.625V18.375" stroke="white" stroke-width="2" stroke-linecap="round" stroke-linejoin="round"/>
<path d="M16.625 18.375H18.375C18.7201 18.3736 19.0621 18.4405 19.3813 18.5719C19.7004 18.7033 19.9903 18.8966 20.2344 19.1406C20.4784 19.3847 20.6717 19.6746 20.8031 19.9938C20.9345 20.3129 21.0014 20.6549 21 21V21.875C20.9986 22.2201 21.0655 22.5621 21.1969 22.8813C21.3283 23.2004 21.5216 23.4904 21.7656 23.7344C22.0097 23.9784 22.2996 24.1717 22.6187 24.3032C22.9379 24.4346 23.2799 24.5015 23.625 24.5" stroke="white" stroke-width="2" stroke-linecap="round" stroke-linejoin="round"/>
<path d="M11.375 18.375H9.625C9.27987 18.3736 8.93788 18.4405 8.61875 18.5719C8.29961 18.7033 8.00966 18.8966 7.76562 19.1406C7.52158 19.3847 7.32827 19.6746 7.19687 19.9938C7.06546 20.3129 6.99855 20.6549 7 21V21.875C7.00145 22.2201 6.93454 22.5621 6.80313 22.8813C6.67173 23.2004 6.47842 23.4904 6.23438 23.7344C5.99034 23.9784 5.70039 24.1717 5.38125 24.3032C5.06212 24.4346 4.72013 24.5015 4.375 24.5" stroke="white" stroke-width="2" stroke-linecap="round" stroke-linejoin="round"/>
<path d="M12.2281 7C11.7141 6.19556 11.0058 5.53345 10.1686 5.0747C9.33138 4.61595 8.39216 4.37533 7.4375 4.375C7.01302 5.10976 6.75832 5.93018 6.69208 6.77615C6.62584 7.62212 6.74974 8.47219 7.05469 9.26406C6.45663 10.1457 6.13313 11.1847 6.125 12.25V13.125C6.125 14.5174 6.67812 15.8527 7.66269 16.8373C8.64726 17.8219 9.98261 18.375 11.375 18.375H16.625C18.0174 18.375 19.3527 17.8219 20.3373 16.8373C21.3219 15.8527 21.875 14.5174 21.875 13.125V12.25C21.8669 11.1847 21.5434 10.1457 20.9453 9.26406C21.2503 8.47219 21.3742 7.62212 21.3079 6.77615C21.2417 5.93018 20.987 5.10976 20.5625 4.375C19.6078 4.37533 18.6686 4.61595 17.8314 5.0747C16.9942 5.53345 16.2859 6.19556 15.7719 7H12.2281Z" stroke="white" stroke-width="2" stroke-linecap="round" stroke-linejoin="round"/>
</svg>
