<svg width="28" height="28" viewBox="0 0 28 28" fill="none" xmlns="http://www.w3.org/2000/svg">
<path d="M13.9996 9.62491C13.9996 7.21866 16.0231 5.2171 18.4293 5.24991C19.272 5.25964 20.0939 5.51254 20.7963 5.97821C21.4987 6.44388 22.0516 7.10251 22.3887 7.87491H26.2496L22.7168 11.4077C22.4888 14.9565 20.9179 18.2852 18.3234 20.7171C15.7289 23.1491 12.3057 24.5017 8.74961 24.4999C5.24961 24.4999 4.37461 23.1874 4.37461 23.1874C4.37461 23.1874 7.87461 21.8749 9.62461 19.2499C9.62461 19.2499 2.62461 15.7499 4.37461 6.12491C4.37461 6.12491 8.74961 10.4999 13.9996 11.3749V9.62491Z" stroke="white" stroke-width="2" stroke-linecap="round" stroke-linejoin="round"/>
</svg>
